<svg xmlns="http://www.w3.org/2000/svg" xmlns:xlink="http://www.w3.org/1999/xlink" version="1.1" width="146.81229pt" height="136.44011pt" viewBox="0 0 146.81229 136.44011">
<defs>
<clipPath id="clip_0">
<path transform="matrix(1,0,0,-1,-323.8456,372.5533)" d="M0 .00001206994H959.76V540H0Z"/>
</clipPath>
<clipPath id="clip_1">
<path transform="matrix(1,0,0,-1,-323.8456,372.5533)" d="M0 0H960V540H0Z"/>
</clipPath>
</defs>
<g clip-path="url(#clip_0)">
<path transform="matrix(1,0,0,-1,-323.8456,372.5533)" d="M380.0656 347.9016C380.0656 359.4724 389.0492 368.8524 400.1311 368.8524 411.213 368.8524 420.1967 359.4724 420.1967 347.9016 420.1967 336.3308 411.213 326.9508 400.1311 326.9508 389.0492 326.9508 380.0656 336.3308 380.0656 347.9016Z" fill="#369525" fill-rule="evenodd"/>
<path transform="matrix(.00007874016,0,0,.00007874016,56.22,3.7009278)" stroke-width="9525" stroke-linecap="butt" stroke-miterlimit="8" stroke-linejoin="miter" fill="none" stroke="#172c51" d="M0 266075C0 119125.8 114092.4 0 254832.5 0 395572.6 0 509665 119125.8 509665 266075 509665 413024.2 395572.6 532150 254832.5 532150 114092.4 532150 0 413024.2 0 266075Z"/>
<path transform="matrix(1,0,0,-1,-323.8456,372.5533)" d="M357.8906 319.8351C361.7107 327.7828 371.2503 331.1289 379.198 327.3088L396.8194 318.839C404.7671 315.0189 408.1132 305.4793 404.2931 297.5316 400.473 289.5839 390.9334 286.2379 382.9857 290.0579L365.3643 298.5277C357.4166 302.3478 354.0705 311.8875 357.8906 319.8351Z" fill="#4063d5" fill-rule="evenodd"/>
<path transform="matrix(.000070968,.00003411092,-.00003411092,.000070968,40.961793,38.327608)" stroke-width="9525" stroke-linecap="butt" stroke-miterlimit="8" stroke-linejoin="miter" fill="none" stroke="#172c51" d="M0 202775.4C0 90785.62 90785.61 0 202775.3 0H451076.4C563066.1 0 653851.7 90785.62 653851.7 202775.4H653851C653851 314765.1 563065.4 405550.7 451075.7 405550.7L202775.3 405550C90785.61 405550 0 314764.4 0 202774.6Z"/>
<path transform="matrix(1,0,0,-1,-323.8456,372.5533)" d="M348.725 293.5882C351.641 300.7055 359.7746 304.1113 366.8919 301.1953L381.4133 295.2458C388.5306 292.3298 391.9364 284.1961 389.0204 277.0788 386.1043 269.9615 377.9707 266.5557 370.8534 269.4717L356.3321 275.4212C349.2147 278.3372 345.8089 286.4709 348.725 293.5882Z" fill="#4063d5" fill-rule="evenodd"/>
<path transform="matrix(.00007286194,.00002985214,-.00002985214,.00007286194,30.159302,66.078128)" stroke-width="9525" stroke-linecap="butt" stroke-miterlimit="8" stroke-linejoin="miter" fill="none" stroke="#172c51" d="M0 176869.5C0 79187.17 79187.1 0 176869.3 0H376168.7C473850.9 0 553038 79187.17 553038 176869.5 553038 274551.8 473850.9 353739 376168.7 353739H176869.3C79187.1 353739 0 274551.8 0 176869.5Z"/>
<path transform="matrix(1,0,0,-1,-323.8456,372.5533)" d="M337.1209 265.433C339.809 272.6395 347.8301 276.3025 355.0366 273.6144L370.4106 267.88C377.6171 265.1919 381.28 257.1708 378.592 249.9643 375.9039 242.7577 367.8828 239.0948 360.6763 241.7828L345.3024 247.5173C338.0958 250.2054 334.4329 258.2265 337.1209 265.433Z" fill="#4063d5" fill-rule="evenodd"/>
<path transform="matrix(.00007377508,.00002751818,-.00002751818,.00007377508,18.142487,94.07172)" stroke-width="9525" stroke-linecap="butt" stroke-miterlimit="8" stroke-linejoin="miter" fill="none" stroke="#172c51" d="M0 176869.5C0 79187.17 79187.08 0 176869.3 0H385258.7C482941 0 562128 79187.17 562128 176869.5 562128 274551.8 482941 353739 385258.7 353739H176869.3C79187.08 353739 0 274551.8 0 176869.5Z"/>
<path transform="matrix(1,0,0,-1,-323.8456,372.5533)" d="M365.7043 342.2185C370.5046 339.9896 372.5892 334.2913 370.3603 329.491L349.7452 285.093C347.5163 280.2927 341.818 278.2082 337.0177 280.4371 332.2174 282.666 330.1329 288.3642 332.3618 293.1645L352.9769 337.5625C355.2058 342.3628 360.9041 344.4473 365.7043 342.2185Z" fill="#c73b32" fill-rule="evenodd"/>
<path transform="matrix(-.00003316067,.00007141696,-.00007141696,-.00003316067,50.550386,34.370607)" stroke-width="9525" stroke-linecap="butt" stroke-miterlimit="8" stroke-linejoin="miter" fill="none" stroke="#172c51" d="M0 121703.5C0 54488.51 54488.48 0 121703.4 0H743376.6C810591.5 0 865080 54488.51 865080 121703.5 865080 188918.5 810591.5 243407 743376.6 243407H121703.4C54488.48 243407 0 188918.5 0 121703.5Z"/>
<path transform="matrix(1,0,0,-1,-323.8456,372.5533)" d="M404.697 316.9648C408.5409 319.595 413.7893 318.6111 416.4195 314.7673L448.7154 267.5693C451.3456 263.7254 450.3617 258.4771 446.5178 255.8468 442.6739 253.2166 437.4256 254.2004 434.7954 258.0443L402.4995 305.2423C399.8693 309.0862 400.8531 314.3345 404.697 316.9648Z" fill="#9356af" fill-rule="evenodd"/>
<path transform="matrix(.00004446567,.0000649832,-.0000649832,.00004446567,87.8114,50.82611)" stroke-width="9525" stroke-linecap="butt" stroke-miterlimit="8" stroke-linejoin="miter" fill="none" stroke="#172c51" d="M0 107104.5C0 47952.32 47952.26 0 107104.4 0H833414.6C892566.8 0 940519 47952.32 940519 107104.5 940519 166256.7 892566.8 214209 833414.6 214209H107104.4C47952.26 214209 0 166256.7 0 107104.5Z"/>
<path transform="matrix(1,0,0,-1,-323.8456,372.5533)" d="M461.416 308.7286C465.0846 307.6357 467.1726 303.7756 466.0797 300.107L453.1077 256.565C452.0148 252.8964 448.1548 250.8084 444.4861 251.9014 440.8175 252.9944 438.7295 256.8544 439.8224 260.523L452.7944 304.0649C453.8874 307.7335 457.7474 309.8215 461.416 308.7286Z" fill="#9356af" fill-rule="evenodd"/>
<path transform="matrix(-.00002248165,.00007546249,-.00007546249,-.00002248165,144.21298,65.80371)" stroke-width="9525" stroke-linecap="butt" stroke-miterlimit="8" stroke-linejoin="miter" fill="none" stroke="#172c51" d="M0 88025.91C0 39410.54 39410.46 0 88025.72 0H665027.1C713642.3 0 753052.8 39410.54 753052.8 88025.91H753052C753052 136641.3 713641.5 176051.8 665026.3 176051.8L88025.72 176051C39410.46 176051 0 136640.5 0 88025.09Z"/>
<path transform="matrix(1,0,0,-1,-323.8456,372.5533)" d="M449.1147 299.5082C449.1147 304.8862 453.3423 309.2459 458.5574 309.2459 463.7724 309.2459 468 304.8862 468 299.5082 468 294.1302 463.7724 289.7705 458.5574 289.7705 453.3423 289.7705 449.1147 294.1302 449.1147 299.5082Z" fill="#9356af" fill-rule="evenodd"/>
<path transform="matrix(.00007874016,0,0,.00007874016,125.26907,63.307405)" stroke-width="9525" stroke-linecap="butt" stroke-miterlimit="8" stroke-linejoin="miter" fill="none" stroke="#172c51" d="M0 123669C0 55368.5 53690.68 0 119921.5 0 186152.3 0 239843 55368.5 239843 123669 239843 191969.5 186152.3 247338 119921.5 247338 53690.68 247338 0 191969.5 0 123669Z"/>
<path transform="matrix(1,0,0,-1,-323.8456,372.5533)" d="M334.0331 284.3978C335.6414 288.3233 340.1274 290.2017 344.0528 288.5934L398.3907 266.3308C402.3161 264.7225 404.1946 260.2365 402.5863 256.311 400.978 252.3855 396.492 250.5071 392.5665 252.1154L338.2287 274.3781C334.3032 275.9864 332.4248 280.4723 334.0331 284.3978Z" fill="#c73b32" fill-rule="evenodd"/>
<path transform="matrix(.00007286194,.00002985214,-.00002985214,.00007286194,13.099579,81.04782)" stroke-width="9525" stroke-linecap="butt" stroke-miterlimit="8" stroke-linejoin="miter" fill="none" stroke="#172c51" d="M0 97550C0 43674.62 43674.54 0 97549.82 0H843314.2C897189.5 0 940864 43674.62 940864 97550 940864 151425.4 897189.5 195100 843314.2 195100H97549.82C43674.54 195100 0 151425.4 0 97550Z"/>
<path transform="matrix(1,0,0,-1,-323.8456,372.5533)" d="M391.3834 256.5737C391.3834 262.5221 396.2716 267.3442 402.3015 267.3442 408.3314 267.3442 413.2196 262.5221 413.2196 256.5737 413.2196 250.6253 408.3314 245.8032 402.3015 245.8032 396.2716 245.8032 391.3834 250.6253 391.3834 256.5737Z" fill="#c73b32" fill-rule="evenodd"/>
<path transform="matrix(.00007874016,0,0,.00007874016,67.53778,105.20911)" stroke-width="9525" stroke-linecap="butt" stroke-miterlimit="8" stroke-linejoin="miter" fill="none" stroke="#172c51" d="M0 136785.5C0 61240.95 62079.97 0 138659.5 0 215239 0 277319 61240.95 277319 136785.5 277319 212330 215239 273571 138659.5 273571 62079.97 273571 0 212330 0 136785.5Z"/>
</g>
</svg>
