<svg xmlns="http://www.w3.org/2000/svg" xmlns:xlink="http://www.w3.org/1999/xlink" version="1.1" width="229.52112pt" height="322.2427pt" viewBox="0 0 229.52112 322.2427">
<defs>
<clipPath id="clip_0">
<path transform="matrix(1,0,0,-1,-254.0886,375.3187)" d="M0 .00001206994H959.76V540H0Z"/>
</clipPath>
<clipPath id="clip_1">
<path transform="matrix(1,0,0,-1,-254.0886,375.3187)" d="M0 0H960V540H0Z"/>
</clipPath>
</defs>
<g clip-path="url(#clip_0)">
<path transform="matrix(1,0,0,-1,-254.0886,375.3187)" d="M386.8103 67.07397C385.6495 64.40066 382.5414 63.17451 379.8681 64.33529L348.7263 77.85734C346.053 79.01811 344.8268 82.12626 345.9876 84.79957L345.9877 84.79955C347.1484 87.47286 350.2566 88.69901 352.9299 87.53823L384.0716 74.01616C386.7449 72.85538 387.9711 69.74724 386.8103 67.07393Z" fill="#9356af" fill-rule="evenodd"/>
<path transform="matrix(-.00007222537,-.00003136093,.00003136093,-.00007222537,130.6199,313.08518)" stroke-width="9525" stroke-linecap="butt" stroke-miterlimit="8" stroke-linejoin="miter" fill="none" stroke="#172c51" d="M0 67018.81C0 30005.34 30005.33 0 67018.79 0H498193.8C535207.3 0 565212.6 30005.34 565212.6 67018.81H565212C565212 104032.3 535206.7 134037.6 498193.2 134037.6L67018.79 134037C30005.33 134037 0 104031.7 0 67018.19Z"/>
<path transform="matrix(1,0,0,-1,-254.0886,375.3187)" d="M283.007 107.0715C279.9718 106.5554 277.093 108.5975 276.5769 111.6326L269.7168 151.9776C269.2007 155.0127 271.2428 157.8915 274.2779 158.4076 277.313 158.9237 280.1918 156.8816 280.7079 153.8465L287.5681 113.5015C288.0842 110.4664 286.0421 107.5876 283.007 107.0715Z" fill="#c73b32" fill-rule="evenodd"/>
<path transform="matrix(-.00001319935,-.00007762596,.00007762596,-.00001319935,23.422821,269.18159)" stroke-width="9525" stroke-linecap="butt" stroke-miterlimit="8" stroke-linejoin="miter" fill="none" stroke="#172c51" d="M0 70795.5C0 31696.23 31696.13 0 70795.29 0H590530.7C629629.9 0 661326 31696.23 661326 70795.5 661326 109894.8 629629.9 141591 590530.7 141591H70795.29C31696.13 141591 0 109894.8 0 70795.5Z"/>
<path transform="matrix(1,0,0,-1,-254.0886,375.3187)" d="M380.0656 347.9016C380.0656 359.4724 389.0492 368.8524 400.1311 368.8524 411.213 368.8524 420.1967 359.4724 420.1967 347.9016 420.1967 336.3308 411.213 326.9508 400.1311 326.9508 389.0492 326.9508 380.0656 336.3308 380.0656 347.9016Z" fill="#369525" fill-rule="evenodd"/>
<path transform="matrix(.00007874016,0,0,.00007874016,125.97702,6.4663088)" stroke-width="9525" stroke-linecap="butt" stroke-miterlimit="8" stroke-linejoin="miter" fill="none" stroke="#172c51" d="M0 266075C0 119125.8 114092.4 0 254832.5 0 395572.6 0 509665 119125.8 509665 266075 509665 413024.2 395572.6 532150 254832.5 532150 114092.4 532150 0 413024.2 0 266075Z"/>
<path transform="matrix(1,0,0,-1,-254.0886,375.3187)" d="M357.8906 319.8351C361.7107 327.7828 371.2503 331.1289 379.198 327.3088L396.8194 318.839C404.7671 315.0189 408.1132 305.4793 404.2931 297.5316 400.473 289.5839 390.9334 286.2379 382.9857 290.0579L365.3643 298.5277C357.4166 302.3478 354.0705 311.8875 357.8906 319.8351Z" fill="#369525" fill-rule="evenodd"/>
<path transform="matrix(.000070968,.00003411092,-.00003411092,.000070968,110.71881,41.092988)" stroke-width="9525" stroke-linecap="butt" stroke-miterlimit="8" stroke-linejoin="miter" fill="none" stroke="#172c51" d="M0 202775.4C0 90785.62 90785.61 0 202775.3 0H451076.4C563066.1 0 653851.7 90785.62 653851.7 202775.4H653851C653851 314765.1 563065.4 405550.7 451075.7 405550.7L202775.3 405550C90785.61 405550 0 314764.4 0 202774.6Z"/>
<path transform="matrix(1,0,0,-1,-254.0886,375.3187)" d="M348.725 293.5882C351.641 300.7055 359.7746 304.1113 366.8919 301.1953L381.4133 295.2458C388.5306 292.3298 391.9364 284.1961 389.0204 277.0788 386.1043 269.9615 377.9707 266.5557 370.8534 269.4717L356.3321 275.4212C349.2147 278.3372 345.8089 286.4709 348.725 293.5882Z" fill="#369525" fill-rule="evenodd"/>
<path transform="matrix(.00007286194,.00002985214,-.00002985214,.00007286194,99.91632,68.843509)" stroke-width="9525" stroke-linecap="butt" stroke-miterlimit="8" stroke-linejoin="miter" fill="none" stroke="#172c51" d="M0 176869.5C0 79187.17 79187.1 0 176869.3 0H376168.7C473850.9 0 553038 79187.17 553038 176869.5 553038 274551.8 473850.9 353739 376168.7 353739H176869.3C79187.1 353739 0 274551.8 0 176869.5Z"/>
<path transform="matrix(1,0,0,-1,-254.0886,375.3187)" d="M337.1209 265.433C339.809 272.6395 347.8301 276.3025 355.0366 273.6144L370.4106 267.88C377.6171 265.1919 381.28 257.1708 378.592 249.9643 375.9039 242.7577 367.8828 239.0948 360.6763 241.7828L345.3024 247.5173C338.0958 250.2054 334.4329 258.2265 337.1209 265.433Z" fill="#369525" fill-rule="evenodd"/>
<path transform="matrix(.00007377508,.00002751818,-.00002751818,.00007377508,87.899509,96.8371)" stroke-width="9525" stroke-linecap="butt" stroke-miterlimit="8" stroke-linejoin="miter" fill="none" stroke="#172c51" d="M0 176869.5C0 79187.17 79187.08 0 176869.3 0H385258.7C482941 0 562128 79187.17 562128 176869.5 562128 274551.8 482941 353739 385258.7 353739H176869.3C79187.08 353739 0 274551.8 0 176869.5Z"/>
<path transform="matrix(1,0,0,-1,-254.0886,375.3187)" d="M365.7043 342.2185C370.5046 339.9896 372.5892 334.2913 370.3603 329.491L349.7452 285.093C347.5163 280.2927 341.818 278.2082 337.0177 280.4371 332.2174 282.666 330.1329 288.3642 332.3618 293.1645L352.9769 337.5625C355.2058 342.3628 360.9041 344.4473 365.7043 342.2185Z" fill="#4063d5" fill-rule="evenodd"/>
<path transform="matrix(-.00003316067,.00007141696,-.00007141696,-.00003316067,120.3074,37.135988)" stroke-width="9525" stroke-linecap="butt" stroke-miterlimit="8" stroke-linejoin="miter" fill="none" stroke="#172c51" d="M0 121703.5C0 54488.51 54488.48 0 121703.4 0H743376.6C810591.5 0 865080 54488.51 865080 121703.5 865080 188918.5 810591.5 243407 743376.6 243407H121703.4C54488.48 243407 0 188918.5 0 121703.5Z"/>
<path transform="matrix(1,0,0,-1,-254.0886,375.3187)" d="M404.697 316.9648C408.5409 319.595 413.7893 318.6111 416.4195 314.7673L448.7154 267.5693C451.3456 263.7254 450.3617 258.4771 446.5178 255.8468 442.6739 253.2166 437.4256 254.2004 434.7954 258.0443L402.4995 305.2423C399.8693 309.0862 400.8531 314.3345 404.697 316.9648Z" fill="#4063d5" fill-rule="evenodd"/>
<path transform="matrix(.00004446567,.0000649832,-.0000649832,.00004446567,157.56842,53.59149)" stroke-width="9525" stroke-linecap="butt" stroke-miterlimit="8" stroke-linejoin="miter" fill="none" stroke="#172c51" d="M0 107104.5C0 47952.32 47952.26 0 107104.4 0H833414.6C892566.8 0 940519 47952.32 940519 107104.5 940519 166256.7 892566.8 214209 833414.6 214209H107104.4C47952.26 214209 0 166256.7 0 107104.5Z"/>
<path transform="matrix(1,0,0,-1,-254.0886,375.3187)" d="M461.416 308.7286C465.0846 307.6357 467.1726 303.7756 466.0797 300.107L453.1077 256.565C452.0148 252.8964 448.1548 250.8084 444.4861 251.9014 440.8175 252.9944 438.7295 256.8544 439.8224 260.523L452.7944 304.0649C453.8874 307.7335 457.7474 309.8215 461.416 308.7286Z" fill="#4063d5" fill-rule="evenodd"/>
<path transform="matrix(-.00002248165,.00007546249,-.00007546249,-.00002248165,213.97,68.56909)" stroke-width="9525" stroke-linecap="butt" stroke-miterlimit="8" stroke-linejoin="miter" fill="none" stroke="#172c51" d="M0 88025.91C0 39410.54 39410.46 0 88025.72 0H665027.1C713642.3 0 753052.8 39410.54 753052.8 88025.91H753052C753052 136641.3 713641.5 176051.8 665026.3 176051.8L88025.72 176051C39410.46 176051 0 136640.5 0 88025.09Z"/>
<path transform="matrix(1,0,0,-1,-254.0886,375.3187)" d="M449.1147 299.5082C449.1147 304.8862 453.3423 309.2459 458.5574 309.2459 463.7724 309.2459 468 304.8862 468 299.5082 468 294.1302 463.7724 289.7705 458.5574 289.7705 453.3423 289.7705 449.1147 294.1302 449.1147 299.5082Z" fill="#4063d5" fill-rule="evenodd"/>
<path transform="matrix(.00007874016,0,0,.00007874016,195.0261,66.072788)" stroke-width="9525" stroke-linecap="butt" stroke-miterlimit="8" stroke-linejoin="miter" fill="none" stroke="#172c51" d="M0 123669C0 55368.5 53690.68 0 119921.5 0 186152.3 0 239843 55368.5 239843 123669 239843 191969.5 186152.3 247338 119921.5 247338 53690.68 247338 0 191969.5 0 123669Z"/>
<path transform="matrix(1,0,0,-1,-254.0886,375.3187)" d="M334.0331 284.3978C335.6414 288.3233 340.1274 290.2017 344.0528 288.5934L398.3907 266.3308C402.3161 264.7225 404.1946 260.2365 402.5863 256.311 400.978 252.3855 396.492 250.5071 392.5665 252.1154L338.2287 274.3781C334.3032 275.9864 332.4248 280.4723 334.0331 284.3978Z" fill="#4063d5" fill-rule="evenodd"/>
<path transform="matrix(.00007286194,.00002985214,-.00002985214,.00007286194,82.8566,83.8132)" stroke-width="9525" stroke-linecap="butt" stroke-miterlimit="8" stroke-linejoin="miter" fill="none" stroke="#172c51" d="M0 97550C0 43674.62 43674.54 0 97549.82 0H843314.2C897189.5 0 940864 43674.62 940864 97550 940864 151425.4 897189.5 195100 843314.2 195100H97549.82C43674.54 195100 0 151425.4 0 97550Z"/>
<path transform="matrix(1,0,0,-1,-254.0886,375.3187)" d="M391.3834 256.5737C391.3834 262.5221 396.2716 267.3442 402.3015 267.3442 408.3314 267.3442 413.2196 262.5221 413.2196 256.5737 413.2196 250.6253 408.3314 245.8032 402.3015 245.8032 396.2716 245.8032 391.3834 250.6253 391.3834 256.5737Z" fill="#4063d5" fill-rule="evenodd"/>
<path transform="matrix(.00007874016,0,0,.00007874016,137.2948,107.97449)" stroke-width="9525" stroke-linecap="butt" stroke-miterlimit="8" stroke-linejoin="miter" fill="none" stroke="#172c51" d="M0 136785.5C0 61240.95 62079.97 0 138659.5 0 215239 0 277319 61240.95 277319 136785.5 277319 212330 215239 273571 138659.5 273571 62079.97 273571 0 212330 0 136785.5Z"/>
<path transform="matrix(1,0,0,-1,-254.0886,375.3187)" d="M379.6648 145.7703C384.7719 143.9383 387.4268 138.3131 385.5948 133.2061L369.6368 88.72009C367.8048 83.61308 362.1796 80.95816 357.0726 82.79016V82.79023C351.9655 84.62223 349.3106 90.2474 351.1426 95.35441L367.1007 139.8403C368.9327 144.9473 374.5579 147.6022 379.6649 145.7702Z" fill="#9356af" fill-rule="evenodd"/>
<path transform="matrix(-.0000265869,.00007411578,-.00007411578,-.0000265869,134.8233,232.8656)" stroke-width="9525" stroke-linecap="butt" stroke-miterlimit="8" stroke-linejoin="miter" fill="none" stroke="#172c51" d="M0 124765.5C0 55859.4 55859.21 0 124765 0H724987.9C793893.7 0 849752.9 55859.4 849752.9 124765.5H849752C849752 193671.5 793892.7 249530.9 724986.9 249530.9L124765 249530C55859.21 249530 0 193670.6 0 124764.5Z"/>
<path transform="matrix(1,0,0,-1,-254.0886,375.3187)" d="M365.5855 222.4983C372.8676 223.5556 379.6281 218.5094 380.6855 211.2273L389.469 150.7329C390.5264 143.4507 385.4802 136.6902 378.198 135.6329V135.633C370.9158 134.5756 364.1553 139.6218 363.098 146.904L354.3145 207.3983C353.2572 214.6804 358.3034 221.4409 365.5856 222.4983Z" fill="#9356af" fill-rule="evenodd"/>
<path transform="matrix(.00001131414,.00007792305,-.00007792305,.00001131414,124.6824,150.9059)" stroke-width="9525" stroke-linecap="butt" stroke-miterlimit="8" stroke-linejoin="miter" fill="none" stroke="#172c51" d="M0 169212.1C0 75758.84 75758.65 0 169211.7 0H945546.6C1039000 0 1114758 75758.84 1114758 169212.1H1114757C1114757 262665.4 1038998 338424.2 945545.3 338424.2L169211.7 338423C75758.65 338423 0 262664.2 0 169210.9Z"/>
<path transform="matrix(1,0,0,-1,-254.0886,375.3187)" d="M318.0373 222.0973C317.4692 232.4285 325.3838 241.2643 335.7151 241.8324L357.9367 243.0544C368.2679 243.6225 377.1037 235.7079 377.6718 225.3766H377.6717C378.2399 215.0454 370.3253 206.2096 359.994 205.6415L337.7725 204.4196C327.4412 203.8514 318.6055 211.766 318.0373 222.0973Z" fill="#369525" fill-rule="evenodd"/>
<path transform="matrix(.00007862137,-.000004323515,.000004323515,.00007862137,62.920015,134.515)" stroke-width="9525" stroke-linecap="butt" stroke-miterlimit="8" stroke-linejoin="miter" fill="none" stroke="#172c51" d="M0 237930.9C0 106525.3 106525.2 0 237930.7 0H520571.1C651976.6 0 758501.8 106525.3 758501.8 237930.9H758501C758501 369336.5 651975.8 475861.8 520570.2 475861.8L237930.7 475861C106525.2 475861 0 369335.7 0 237930.1Z"/>
<path transform="matrix(1,0,0,-1,-254.0886,375.3187)" d="M335.2894 126.6513C333.5073 121.5267 327.9083 118.817 322.7836 120.5991L283.0647 134.4113C277.94 136.1934 275.2304 141.7924 277.0125 146.9171 278.7946 152.0417 284.3936 154.7514 289.5183 152.9693L329.2371 139.157C334.3618 137.375 337.0714 131.7759 335.2894 126.6513Z" fill="#c73b32" fill-rule="evenodd"/>
<path transform="matrix(-.0000743716,-.00002586267,.00002586267,-.0000743716,77.974,257.9464)" stroke-width="9525" stroke-linecap="butt" stroke-miterlimit="8" stroke-linejoin="miter" fill="none" stroke="#172c51" d="M0 124765.4C0 55859.38 55859.24 0 124765.1 0H658825.7C727731.6 0 783590.9 55859.38 783590.9 124765.4H783590C783590 193671.5 727730.8 249530.8 658824.9 249530.8L124765.1 249530C55859.24 249530 0 193670.6 0 124764.6Z"/>
<path transform="matrix(1,0,0,-1,-254.0886,375.3187)" d="M334.3806 214.3544C341.7257 213.9099 347.3197 207.5951 346.8751 200.2501L343.1821 139.233C342.7376 131.8879 336.4228 126.2939 329.0777 126.7385L329.0778 126.7386C321.7327 127.1832 316.1387 133.4979 316.5832 140.843L320.2763 201.8599C320.7209 209.205 327.0356 214.799 334.3807 214.3544Z" fill="#c73b32" fill-rule="evenodd"/>
<path transform="matrix(-.000004756972,.00007859633,-.00007859633,-.000004756972,93.59152,161.7692)" stroke-width="9525" stroke-linecap="butt" stroke-miterlimit="8" stroke-linejoin="miter" fill="none" stroke="#172c51" d="M0 169212.1C0 75758.84 75758.65 0 169211.7 0H945546.6C1039000 0 1114758 75758.84 1114758 169212.1H1114757C1114757 262665.4 1038998 338424.2 945545.3 338424.2L169211.7 338423C75758.65 338423 0 262664.2 0 169210.9Z"/>
<path transform="matrix(1,0,0,-1,-254.0886,375.3187)" d="M272.2834 107.2691C269.2047 107.2691 266.7089 109.7649 266.7089 112.8435V153.7676C266.7089 156.8463 269.2047 159.342 272.2834 159.342 275.3621 159.342 277.8578 156.8463 277.8578 153.7676V112.8435C277.8578 109.7649 275.3621 107.2691 272.2834 107.2691Z" fill="#c73b32" fill-rule="evenodd"/>
<path transform="matrix(0,-.00007874016,.00007874016,0,12.6203,268.0496)" stroke-width="9525" stroke-linecap="butt" stroke-miterlimit="8" stroke-linejoin="miter" fill="none" stroke="#172c51" d="M0 70795.5C0 31696.23 31696.13 0 70795.29 0H590530.7C629629.9 0 661326 31696.23 661326 70795.5 661326 109894.8 629629.9 141591 590530.7 141591H70795.29C31696.13 141591 0 109894.8 0 70795.5Z"/>
<path transform="matrix(1,0,0,-1,-254.0886,375.3187)" d="M379.3556 60.73794C377.7375 58.31397 374.4607 57.66069 372.0368 59.27881L345.7819 76.80526C343.358 78.42338 342.7047 81.70015 344.3228 84.12413L344.3229 84.1241C345.941 86.54808 349.2178 87.20135 351.6417 85.58323L377.8965 68.05677C380.3205 66.43864 380.9737 63.16188 379.3556 60.7379Z" fill="#9356af" fill-rule="evenodd"/>
<path transform="matrix(-.00006548902,-.00004371727,.00004371727,-.00006548902,122.33722,318.96977)" stroke-width="9525" stroke-linecap="butt" stroke-miterlimit="8" stroke-linejoin="miter" fill="none" stroke="#172c51" d="M0 67018.79C0 30005.33 30005.23 0 67018.56 0H467923C504936.3 0 534941.6 30005.33 534941.6 67018.79H534941C534941 104032.2 504935.7 134037.6 467922.4 134037.6L67018.56 134037C30005.23 134037 0 104031.7 0 67018.21Z"/>
</g>
</svg>
